<svg xmlns="http://www.w3.org/2000/svg" xmlns:xlink="http://www.w3.org/1999/xlink" viewBox="0 0 621.16 110.38"><defs><style>.cls-1{font-size:99.98px;fill:#fff;font-family:Geist-SemiBold, Geist;font-weight:600;letter-spacing:-0.06em;}.cls-2{letter-spacing:-0.04em;}.cls-3{letter-spacing:-0.03em;}.cls-4{letter-spacing:-0.03em;}.cls-5{letter-spacing:-0.02em;}.cls-6{letter-spacing:-0.03em;}.cls-7{letter-spacing:-0.02em;}.cls-8{letter-spacing:-0.02em;}.cls-9{fill:#afed5d;}.cls-10{fill:#a3e756;}.cls-11{fill:url(#linear-gradient);}</style><linearGradient id="linear-gradient" x1="-71.5" y1="-103.05" x2="88.13" y2="155.17" gradientUnits="userSpaceOnUse"><stop offset="0" stop-color="#2574f5"/><stop offset="1" stop-color="#ba92ff"/></linearGradient></defs><g id="Layer_2" data-name="Layer 2"><g id="Layer_1-2" data-name="Layer 1"><text class="cls-1" transform="translate(154.46 85.48)">B<tspan class="cls-2" x="63.69" y="0">y</tspan><tspan class="cls-3" x="116.48" y="0">t</tspan><tspan class="cls-4" x="155.77" y="0">e</tspan><tspan class="cls-5" x="211.85" y="0">s</tspan><tspan class="cls-6" x="265.44" y="0">C</tspan><tspan class="cls-7" x="335.13" y="0">a</tspan><tspan x="390.92" y="0">r</tspan><tspan class="cls-8" x="426.01" y="0">t</tspan></text><polygon class="cls-9" points="125 18.32 125 36.68 90.04 71.64 52.61 71.64 34.96 53.98 0 53.98 0 37.03 36.37 37.03 53.32 53.98 88.63 53.98 105.58 37.03 54.02 37.03 35.31 18.32 125 18.32"/><polygon class="cls-10" points="53.23 70.14 35.58 52.48 1.5 52.48 1.5 38.53 35.75 38.53 52.7 55.48 89.25 55.48 109.2 35.53 54.65 35.53 38.93 19.82 123.5 19.82 123.5 36.06 89.42 70.14 53.23 70.14"/><polygon class="cls-10" points="35.31 18.32 0 18.32 0 1.01 18.01 1.01 35.31 18.32"/><polygon class="cls-10" points="1.5 16.82 1.5 2.52 17.39 2.52 31.69 16.82 1.5 16.82"/><path class="cls-11" d="M59,89.29A11.62,11.62,0,1,1,47.4,77.68,11.65,11.65,0,0,1,59,89.29Z"/><path class="cls-9" d="M59,89.29A11.62,11.62,0,1,1,47.4,77.68,11.65,11.65,0,0,1,59,89.29Z"/><path class="cls-10" d="M47.4,99.92A10.62,10.62,0,1,1,58,89.29,10.63,10.63,0,0,1,47.4,99.92Z"/><path class="cls-9" d="M94.54,100.91a11.62,11.62,0,1,1,11.62-11.63A11.62,11.62,0,0,1,94.54,100.91Z"/><path class="cls-10" d="M94.54,99.91a10.62,10.62,0,1,1,10.62-10.63A10.63,10.63,0,0,1,94.54,99.91Z"/></g></g></svg>